<svg width="118" height="42" fill="none" xmlns="http://www.w3.org/2000/svg"><g clip-path="url(#clip0_803_712)"><path d="M47 8.4h-6.4V30H47V8.4zM22.7 21.6c0 2.5-.7 4.6-2.2 6.1C19 29.2 17 30 14.4 30H.2V.5h11.9c1.6 0 2.9.2 4 .5 1.1.4 2.1.8 2.8 1.5.7.6 1.2 1.3 1.6 2.2.3.8.5 1.7.5 2.7 0 1.1-.2 2.1-.5 3-.4.9-.8 1.7-1.3 2.3-.5.6-1.1 1-1.6 1.2 1.7.8 3 1.8 3.8 3 .8 1.2 1.3 2.8 1.3 4.7zM14 9c0-1.4-.4-2.3-1.2-2.8-.8-.5-2-.7-3.7-.7H7.6v7h1.6c1.7 0 2.9-.2 3.7-.7.7-.4 1.1-1.4 1.1-2.8zm1.2 12.2c0-2.5-1.5-3.8-4.6-3.8h-3V25h3c3.1 0 4.6-1.2 4.6-3.8zM39.7 9.5l-2.4 7.7c-1-1.1-2-1.7-3-1.7-.9 0-1.7.4-2.3 1.1-.7.7-1.3 2.1-1.9 4v9.3h-6.4V8.4h6.4v5.2c.4-1.3 1.1-2.5 2.1-3.8 1-1.2 2.2-1.8 3.6-1.8.7 0 1.4.1 1.9.4.6.2 1.3.6 2 1.1zm24.1 19.2c-.7.4-1.6.8-2.7 1.1-1.2.4-2.3.5-3.4.5-4.6 0-6.9-2.7-6.9-8.1v-8.6h-2.9v-1.3l8.6-10.4h.7v6.5h6.1v5.3h-6.1v6.9c0 .8 0 1.5.1 2s.3.9.7 1.2c.4.3 1 .5 1.8.5 1 0 2.4-.5 4-1.5v5.9zm20.5.2c-.9.4-1.8.8-2.6 1.1-.8.3-1.8.4-2.9.4-1.1 0-1.8-.2-2.2-.7-.4-.4-.7-1-.9-1.6-.7.7-1.5 1.2-2.3 1.6-.8.4-1.9.7-3.3.7-1.3 0-2.4-.3-3.2-.8-.8-.5-1.4-1.2-1.7-2.1-.3-.8-.5-1.7-.5-2.6 0-1.3.3-2.4.8-3.3.6-.9 1.3-1.6 2.3-2.1.9-.5 2.2-1.1 3.8-1.7.9-.3 1.6-.6 2-.8.5-.2.8-.3 1-.4.2-.1.5-.2.7-.4 0-1-.2-1.9-.5-2.5-.4-.6-1.1-.9-2.3-.9-1.4 0-2.7.4-3.9 1.1-1.2.7-2.3 1.7-3.3 2.9v-5.9c.8-.7 1.7-1.2 2.6-1.7.9-.4 1.9-.7 2.9-1 1-.2 2-.3 3.1-.3 2.6 0 4.6.6 5.9 1.8 1.3 1.2 2 2.9 2 5V23c0 .8.1 1.4.2 1.8.1.4.3.6.7.6.4 0 1-.2 1.6-.6v4.1zm-8.9-4.2v-5.1c-1.5.7-2.6 1.4-3.3 2-.7.6-1 1.4-1 2.4 0 .7.2 1.3.5 1.7.3.4.8.6 1.2.6.4 0 .9-.1 1.3-.4.4-.4.8-.8 1.3-1.2zm42.001 5.2h-6.4V18.4c0-1.5-.2-2.7-.6-3.4-.4-.7-1.1-1.1-2-1.1-.9 0-1.6.3-2.2 1-.6.6-1.1 1.5-1.7 2.4V30h-6.4V18.4c0-1.5-.2-2.6-.6-3.4-.4-.8-1.1-1.2-2.1-1.2-.5 0-.9.1-1.3.3-.4.2-.7.5-1 .8-.2.3-.6.7-.9 1.3-.4.6-.6.9-.7 1v12.7h-6.4V8.4h6.4v3.1c1-1.2 1.9-2.1 2.9-2.6 1.1-.7 2.3-.9 3.6-.9.6 0 1.2.1 1.8.2.6.1 1.1.4 1.6.7.5.3 1 .8 1.5 1.3.4.6.8 1.2 1 2 1-1.4 2.1-2.4 3.2-3.1 1.1-.7 2.4-1.1 3.8-1.1s2.7.3 3.6 1c1 .7 1.7 1.7 2.2 3 .5 1.3.7 2.9.7 4.8v13.1z" fill="#006EB6"/><path d="M47.1 3.3c0 1.8-1.5 3.3-3.3 3.3-1.8 0-3.3-1.5-3.3-3.3C40.5 1.5 42 0 43.8 0c1.8 0 3.3 1.5 3.3 3.3zM4.6 39.8l-1-3.8-.9 3.8H1.5L0 34.2h1.2l.9 3.8 1-3.8h1.1l1 3.8.9-3.8h1.2l-1.5 5.6H4.6zm4.4 0H7.9v-4H9v4zm-1.1-5.6H9v.9H7.9v-.9zm4.4 1.5v.7h-.8v2c0 .2 0 .3.1.4.1.1.2.1.4.1h.4v.9h-1.1c-.2 0-.3-.1-.4-.1l-.3-.3c-.1-.1-.1-.3-.1-.5v-2.4h-.8v-.7h.7v-1.2h1.1v1.2h.8v-.1zm1.8-1.5v2.1c.1-.2.3-.4.5-.5.2-.1.4-.2.6-.2.3 0 .5 0 .7.1.2.1.3.2.4.3.1.2.2.3.2.5s.1.4.1.7v2.5h-1.1v-2.3c0-.3-.1-.6-.2-.7-.1-.2-.3-.2-.6-.2s-.5.1-.7.3c-.1.2-.2.5-.2.9v2.1h-1.1v-5.6h1.4zm7.4 6.8c-.2.1-.5.2-.9.2H20v-.9h.6c.1 0 .3-.1.3-.2.1-.1.1-.2.1-.3v-.2l-1.4-3.8h1.2l.9 2.8.9-2.8h1.1L22 40.3c-.1.3-.3.5-.5.7zm3.7-2.8c0 .2.1.3.2.4l.3.3c.1.1.3.1.5.1s.3 0 .5-.1l.3-.3c.1-.1.1-.3.2-.4v-1c0-.2-.1-.3-.2-.4l-.3-.3c-.1-.1-.3-.1-.5-.1s-.3 0-.5.1l-.3.3c-.1.1-.1.3-.2.4v1zm-1-1.3c.1-.3.2-.5.4-.7.2-.2.4-.3.7-.4.3-.1.5-.1.9-.1.3 0 .6 0 .9.1.3.1.5.3.7.4.2.2.3.4.4.7.1.3.1.6.1.9 0 .3-.1.6-.1.9-.1.3-.2.5-.4.7-.2.2-.4.3-.7.4-.3.1-.5.1-.9.1-.3 0-.6 0-.9-.1-.3-.1-.5-.2-.7-.4-.2-.2-.3-.4-.4-.7-.1-.3-.1-.5-.1-.9s0-.7.1-.9zm7.6 2.9v-.6c-.1.2-.3.4-.5.5-.2.1-.4.2-.7.2-.3 0-.5 0-.7-.1-.2-.1-.3-.2-.4-.3-.1-.2-.2-.3-.2-.5s-.1-.4-.1-.7v-2.5h1.1V38c0 .3.1.6.2.8.1.2.3.2.5.2.3 0 .5-.1.7-.3.1-.2.2-.5.2-.9v-2.1H33v4h-1.2v.1zm6.8-3.1c-.1-.2-.3-.2-.6-.2-.2 0-.3 0-.4.1-.1.1-.2.1-.3.2-.1.1-.1.2-.1.3 0 .1-.1.2-.1.3h1.8c0-.4-.1-.6-.3-.7zm-1.2 2.1c.2.2.4.2.7.2.2 0 .4-.1.6-.2.2-.1.3-.2.3-.4h1c-.1.5-.4.8-.7 1-.3.2-.7.3-1.2.3-.3 0-.6 0-.9-.1-.3-.1-.5-.3-.6-.4-.2-.2-.3-.4-.4-.7-.1-.3-.1-.5-.1-.9 0-.3 0-.6.1-.8.1-.3.2-.5.4-.7.2-.2.4-.3.7-.5.3-.1.5-.2.8-.2.3 0 .6.1.9.2.3.1.5.3.6.5.2.2.3.5.4.8V38h-2.9c0 .4.1.6.3.8zm4.4 1l-1.4-4.1h1.2l.8 2.8h.1l.8-2.8h1.1l-1.3 4.1h-1.3zm5.7-3.1c-.1-.2-.3-.2-.6-.2-.2 0-.3 0-.4.1-.1.1-.2.1-.3.2-.1.1-.2.1-.2.2s0 .2-.1.3h1.8c0-.3-.1-.5-.2-.6zm-1.3 2.1c.2.2.4.2.7.2.2 0 .4-.1.6-.2.2-.1.3-.2.3-.4h1c-.2.5-.4.8-.7 1-.3.2-.7.3-1.2.3-.3 0-.6 0-.9-.1-.3-.1-.5-.3-.6-.4-.2-.2-.3-.4-.4-.7-.1-.3-.1-.5-.1-.9 0-.3 0-.6.1-.8.1-.3.2-.5.4-.7.2-.2.4-.3.7-.5.2-.1.5-.2.8-.2.3 0 .6.1.9.2.3.1.5.3.6.5.2.2.3.5.4.8.1.3.1.6.1.9H46c0 .6 0 .8.2 1zm4.5-3.1v.8c0-.1.1-.2.2-.4l.3-.3c.1-.1.2-.1.4-.2.1 0 .3-.1.4-.1h.2v1h-.4c-.2 0-.4 0-.5.1-.1.1-.3.2-.3.3-.1.1-.2.3-.2.4 0 .2-.1.3-.1.5v1.8h-1.1v-4h1.1v.1zm3.6 5.3c-.2.1-.5.2-.9.2h-.6v-.9h.6c.1 0 .3-.1.3-.2.1-.1.1-.2.1-.3v-.2l-1.4-3.8h1.2l.9 2.8.9-2.8h1.1l-1.7 4.6c-.1.2-.3.4-.5.6zm6-2.2c0 .1.1.2.2.2s.2.1.3.1h.5c.1 0 .2 0 .2-.1.1 0 .1-.1.2-.1 0-.1.1-.2.1-.2 0-.2-.1-.3-.3-.4-.2-.1-.5-.2-.9-.3-.2 0-.3-.1-.5-.1-.2-.1-.3-.1-.4-.2l-.3-.3c-.1-.1-.1-.3-.1-.4 0-.3.1-.5.2-.6.1-.2.2-.3.4-.4.2-.1.3-.2.6-.2.2 0 .4-.1.6-.1.2 0 .4 0 .6.1.2 0 .4.1.5.2.2.1.3.2.4.4.1.2.2.4.2.6h-1.1c0-.2-.1-.4-.2-.4-.1-.1-.3-.1-.5-.1h-.2c-.1 0-.1 0-.2.1-.1 0-.1.1-.2.1 0 0-.1.1-.1.2s0 .2.1.2c.1.1.2.1.3.1.1 0 .3.1.4.1.2 0 .3.1.5.1s.3.1.5.1c.2.1.3.1.4.2l.3.3c.1.1.1.3.1.5 0 .3-.1.5-.2.7-.1.2-.3.3-.4.4-.2.1-.4.2-.6.2-.2.1-.4.1-.7.1-.2 0-.5 0-.7-.1-.2 0-.4-.1-.6-.2-.2-.1-.3-.3-.4-.4-.1-.2-.2-.4-.2-.7h1.1c0 .1 0 .2.1.3zm5.6-3.1v.7h-.8v2c0 .2 0 .3.1.4.1.1.2.1.4.1h.4v.9h-1.1c-.2 0-.3-.1-.4-.1l-.3-.3c-.2-.2-.2-.3-.2-.5v-2.4h-.7v-.7h.7v-1.2h1.1v1.2h.8v-.1zm3.1 1c-.1-.2-.3-.2-.6-.2-.2 0-.3 0-.4.1-.1.1-.2.1-.3.2-.1.1-.1.2-.1.3 0 .1 0 .2-.1.3h1.8c-.1-.4-.2-.6-.3-.7zm-1.3 2.1c.2.2.4.2.7.2.2 0 .4-.1.6-.2.2-.1.3-.2.3-.4h1c-.2.5-.4.8-.7 1-.3.2-.7.3-1.2.3-.3 0-.6 0-.9-.1-.3-.1-.5-.3-.6-.4-.2-.2-.3-.4-.4-.7-.1-.3-.1-.5-.1-.9 0-.3 0-.6.1-.8.1-.3.2-.5.4-.7.2-.2.4-.3.7-.5.2-.1.5-.2.8-.2.3 0 .6.1.9.2.3.1.5.3.6.5.2.2.3.5.3.8.1.3.1.6.1.9h-2.9c.1.6.2.8.3 1zm6 .1l.3-.3c.1-.1.1-.3.2-.4v-1c0-.2-.1-.3-.2-.4l-.3-.3c-.1-.1-.3-.1-.5-.1s-.3 0-.4.1l-.3.3c-.1.1-.1.3-.1.4 0 .2-.1.3-.1.5s0 .3.1.5c0 .2.1.3.2.4l.3.3c0 .1.1.1.3.1.2 0 .3 0 .5-.1zm-1.5-3.2v.5c.1-.2.3-.4.5-.5.2-.1.4-.1.7-.1.3 0 .6.1.8.2.2.1.4.3.6.5.1.2.3.4.3.7.1.3.1.5.1.8 0 .3 0 .5-.1.8-.1.3-.2.5-.3.7l-.5.5c-.2.1-.5.2-.8.2-.2 0-.5 0-.7-.1-.2-.1-.4-.3-.5-.5v1.9h-1.1v-5.5h1v-.1zm7.2 2.5c0 .2.1.3.2.4l.3.3c.1.1.3.1.4.1.2 0 .3 0 .5-.1l.3-.3c.1-.1.1-.3.2-.4v-1c0-.2-.1-.3-.2-.4l-.3-.3c-.1-.1-.3-.1-.5-.1s-.3 0-.5.1l-.3.3c-.1.1-.1.3-.2.4v.5c.1.2.1.4.1.5zm-1-1.3c.1-.3.2-.5.4-.7.2-.2.4-.3.7-.4.3-.1.5-.1.9-.1.3 0 .6 0 .9.1.3.1.5.3.7.4.2.2.3.4.4.7.1.3.1.6.1.9 0 .3-.1.6-.1.9-.1.3-.2.5-.4.7-.2.2-.4.3-.7.4-.3.1-.5.1-.9.1-.3 0-.6 0-.9-.1-.2-.1-.5-.2-.7-.4-.2-.2-.3-.4-.4-.7-.1-.3-.2-.5-.2-.9.1-.4.1-.7.2-.9zm4.5-.4v-.7h.7v-.3c0-.4.1-.7.3-.9.2-.2.6-.3 1-.3h.6v.7h-.4c-.1 0-.3 0-.3.1-.1.1-.1.2-.1.4v.2h.8v.7h-.8v3.3h-1.1v-3.3h-.7v.1zm7.7-.8v.7h-.8v2c0 .2 0 .3.1.4.1.1.2.1.4.1h.4v.9h-1.1c-.2 0-.3-.1-.4-.1l-.3-.3c-.1-.1-.1-.3-.1-.5v-2.4H88v-.7h.7v-1.2h1.1v1.2h.8v-.1zm1.8-1.5v2.1c.1-.2.3-.4.5-.5.2-.1.4-.2.6-.2.3 0 .5 0 .7.1.2.1.3.2.5.3.1.2.2.3.2.5s.1.4.1.7v2.5h-1.1v-2.3c0-.3-.1-.6-.2-.7-.1-.2-.3-.2-.5-.2-.3 0-.5.1-.7.3-.1.2-.2.5-.2.9v2.1h-1.1v-5.6h1.2zm6 2.5c-.1-.2-.3-.2-.6-.2-.2 0-.3 0-.4.1-.1.1-.2.1-.3.2 0 .1-.1.1-.1.2s0 .2-.1.3h1.8c0-.3-.1-.5-.3-.6zm-1.2 2.1c.2.2.4.2.7.2.2 0 .4-.1.6-.2.2-.1.3-.2.3-.4h1c-.2.5-.4.8-.7 1-.3.2-.7.3-1.2.3-.3 0-.6 0-.9-.1-.3-.1-.5-.3-.6-.4-.2-.2-.3-.4-.4-.7-.1-.3-.1-.5-.1-.9 0-.3.1-.6.1-.8.1-.3.2-.5.4-.7.2-.2.4-.3.6-.5.3-.1.5-.2.8-.2.3 0 .6.1.9.2.3.1.5.3.6.5.2.2.3.5.4.8.1.3.1.6.1.9h-2.9c0 .6.1.8.3 1zm9.2 1l-.7-2.7-.7 2.7h-1.1l-1.3-4.1h1.1l.8 2.8.7-2.8h1l.7 2.8.8-2.8h1.1l-1.2 4.1h-1.2zm5.4-1.9c-.1 0-.1 0-.2.1h-.6c-.1 0-.2 0-.2.1-.1 0-.1.1-.2.1s-.1.1-.1.2-.1.2-.1.3c0 .1 0 .2.1.2 0 .1.1.1.1.2.1 0 .1.1.2.1h.3c.2 0 .4 0 .5-.1l.3-.3c.1-.1.1-.2.1-.3v-.7c-.1 0-.2.1-.2.1zm-2.2-1.6c.1-.2.3-.3.4-.4.2-.1.4-.2.6-.2.2 0 .4-.1.7-.1h.6c.2 0 .4.1.6.2.2.1.3.2.4.3.1.1.2.3.2.6v2.6c0 .2.1.3.1.4h-1.1c0-.1 0-.1-.1-.2v-.2c-.2.2-.4.3-.6.4-.2.1-.5.1-.7.1-.2 0-.4 0-.5-.1-.2 0-.3-.1-.4-.2-.1-.1-.2-.2-.3-.4-.1-.2-.1-.3-.1-.5s0-.4.1-.6c.1-.1.2-.3.3-.4.1-.1.3-.2.4-.2.2 0 .3-.1.5-.1s.3 0 .5-.1c.2 0 .3 0 .4-.1.1 0 .2-.1.3-.1.1-.1.1-.2.1-.3 0-.1 0-.2-.1-.3 0-.1-.1-.1-.2-.2-.1 0-.1-.1-.2-.1h-.3c-.2 0-.4 0-.5.1-.1.1-.2.2-.2.5h-1.1l.2-.4zm5.9 4.7c-.2.1-.5.2-.9.2h-.6v-.9h.6c.1 0 .3-.1.3-.2.1-.1.1-.2.1-.3 0-.1 0-.2-.1-.2l-1.4-3.8h1.2l.9 2.8.9-2.8h1.1l-1.7 4.6c0 .2-.1.4-.4.6z" fill="#E20613"/></g><defs><clipPath id="clip0_803_712"><path fill="#fff" d="M0 0h117.7v41.2H0z"/></clipPath></defs></svg>