<svg width="104" height="53" fill="none" xmlns="http://www.w3.org/2000/svg"><g clip-path="url(#clip0_803_772)" fill="#C10230"><path d="M25.4 44.3h-.9v7.6h.9v-7.6zM27 44l5.7 5.9v-5.6h.9v7.9l-5.7-5.9v5.6H27V44zm11.6 1.8c-.3-.5-.6-.7-1.2-.7s-1.3.4-1.3 1.1c0 .6.6.9 1.1 1.1l.5.2c1.1.4 1.9 1 1.9 2.3 0 1.4-1.1 2.4-2.4 2.4-1.2 0-2.2-.9-2.4-2.1l1-.2c0 .8.7 1.4 1.5 1.4s1.4-.7 1.4-1.5-.7-1.2-1.3-1.4l-.6-.4c-.9-.4-1.7-.9-1.7-1.9 0-1.2 1.1-2 2.2-2 .8 0 1.5.4 2 1.2l-.7.5zm3-1.5v4.5c0 1.2.4 2.4 1.8 2.4s1.8-1.2 1.8-2.4v-4.5h.9v4.8c0 1.7-1 3-2.8 3-1.7 0-2.8-1.3-2.8-3v-4.8h1.1zm7.1 3.6h.3c1 0 2-.2 2-1.4s-1.1-1.4-2.1-1.4h-.3v2.8h.1zm3.8 4h-1.2l-2.2-3.2h-.4v3.2h-.9v-7.6H49c.7 0 1.4 0 2 .4.6.4 1 1.1 1 1.8 0 1.1-.7 2-1.8 2.1l2.3 3.3z"/><path d="M56.1 46.1l-1.4 3.1h2.7l-1.3-3.1zM54.3 50l-.9 1.9h-1L56 44l3.6 7.9h-1l-.8-1.9h-3.5zm6.2-6l5.7 5.9v-5.6h.9v7.9l-5.7-5.9v5.6h-.9V44zm13.7 1.8c-.5-.5-1.3-.7-2-.7-1.7 0-3 1.4-3 3.1 0 1.7 1.3 3.1 3 3.1.7 0 1.5-.3 2-.8v1.1c-.6.3-1.3.5-2 .5-2.2 0-4-1.7-4-3.9 0-2.3 1.8-4 4-4 .7 0 1.3.2 1.9.5v1.1m1.5-1.5h4v.9h-3.1v2.1h3v.9h-3v2.9h3.1v.8h-4v-7.6zm-18.9-8.4h4.6V20.5l-4.6 4.1v11.3zm-26.9-7c0 1.5-.8 3.5-3.2 3.5-1 0-3.1-.1-3.1-2.9v-9L19 24.6v7.1c0 1 .8 4.3 5.2 4.3 1 0 3.8-.5 5.6-2.3v2.1h4.5V20.5l-4.5 4.1v4.3zm34.2 7h4.6V8.5L64 13.1v22.8zm13.8-15.6c-2.7 0-7.2 1.7-7.2 8.8 0 .8.3 7.5 8.1 7.5.4 0 5-.2 7.2-3.8L82 31.7s-.4 2.1-3.5 2.1c-4.9 0-4.4-5.5-4.4-5.5 0-4.7 3-5 4-5 4.7 0 4.2 3.7 4.2 3.7h-6.1l-1.9 2.7h11.6c.2-.1 1.7-9.3-8.1-9.4zM94 26.9l-1.9 2.7h11.6s1.5-9.3-8.3-9.3c-2.7 0-7.2 1.7-7.2 8.8 0 .8.3 7.5 8.1 7.5.4 0 5-.2 7.2-3.8l-3.8-1.1s-.4 2.1-3.5 2.1c-4.9 0-4.4-5.5-4.4-5.5 0-4.7 3-5 4-5 4.7 0 4.2 3.7 4.2 3.7h-6m-83 2.4c-.1 1.7-.9 2.6-2.8 2.9h-.1c-1.9-.3-2.7-1.2-2.8-3v-8.8L0 25.3v5.5c.7 5.3 6.3 5.7 8.1 5.7 1.8 0 7.4-.4 8.1-5.7V0L11 4.8v24.6zm34.6 3.7c-2.5 0-4.5-2.1-4.5-4.7s2-4.7 4.5-4.7 4.5 2.1 4.5 4.7-2 4.7-4.5 4.7zm1.3-12.9c-1.8-.1-4.6 1-5.4 2.4v-10L37 8.5v27.4h4.5v-1.2c.7.7 2.3 2 5.8 1.9 2.2-.1 7.2-1.2 6.9-8.9 0-2.1-1.5-7.2-7.3-7.5z"/></g><defs><clipPath id="clip0_803_772"><path fill="#fff" d="M0 0h103.9v52.2H0z"/></clipPath></defs></svg>