<svg width="155" height="38" fill="none" xmlns="http://www.w3.org/2000/svg"><g clip-path="url(#clip0_803_748)"><path d="M38.6 36.6h1v-8h-1v-1.3H42v1.3h-1v8l1.1-.1v1.3h-3.5v-1.2zm5.3-4.8c0-.2-.1-.3-.3-.3H43v-1.2h1.4c.6 0 1 .3 1 .8v.7c.3-.7 1.2-1.7 2.8-1.7 1.8 0 2.6 1 2.6 2.9v3.3c0 .2.1.3.3.3h.6v1.2h-1.4c-.7 0-1-.3-1-1v-3.6c0-1.1-.2-1.9-1.4-1.9s-2.1.8-2.4 1.9c-.1.3-.1.6-.1 1v3.5H44l-.1-5.9zm9.3 3.9s.9 1.1 2.3 1.1c.7 0 1.3-.3 1.3-1 0-1.4-4.1-1.2-4.1-3.6 0-1.5 1.3-2.1 2.8-2.1.9 0 2.5.3 2.5 1.5v.7h-1.3v-.4c0-.4-.7-.6-1.1-.6-.8 0-1.4.3-1.4.9 0 1.4 4.1 1.1 4.1 3.6 0 1.3-1.2 2.2-2.8 2.2-2 0-3-1.3-3-1.3l.7-1zm6.8-3.9c0-.2-.1-.3-.3-.3h-.6v-1.2h1.4c.7 0 1 .3 1 .9v3.6c0 1 .2 1.9 1.4 1.9 1.6 0 2.5-1.4 2.5-2.9v-3.5h1.4v6c0 .2.1.3.3.3h.6v1.2h-1.4c-.6 0-1-.3-1-.8v-.7C65 37 64 38 62.5 38c-1.7 0-2.6-.9-2.6-2.9l.1-3.3zm9.3 0c0-.2-.1-.3-.3-.3h-.6v-1.2h1.4c.7 0 1 .3 1 .9v1c.4-1.1 1.2-2 2.4-2h.4v1.4h-.4c-.9 0-1.8.7-2.1 1.8-.1.4-.2.9-.2 1.4v3.1h-1.4l-.2-6.1zm7.5 4.9c1.2 0 2-1.3 2-2.4V34h-.4c-1.1 0-3.1.1-3.1 1.5.1.6.6 1.2 1.5 1.2zm1.7-3.7h.3v-.1c0-1.3-.5-1.8-1.7-1.8-.4 0-1.2.1-1.2.6v.4h-1.4v-.7c0-1.2 1.9-1.4 2.6-1.4 2.4 0 3.1 1.3 3.1 3v3.2c0 .2.1.3.3.3h.6v1.2h-1.4c-.7 0-.9-.3-.9-.9v-.5s-.6 1.5-2.4 1.5c-1.3 0-2.6-.8-2.6-2.3.1-2.3 3.4-2.5 4.7-2.5zm4.3-1.3c0-.2-.1-.3-.3-.3h-.6v-1.2h1.4c.6 0 1 .3 1 .8v.7c.2-.7 1.1-1.7 2.7-1.7 1.8 0 2.6 1 2.6 2.9v3.3c0 .2.1.3.3.3h.6v1.2h-1.4c-.7 0-1-.3-1-1v-3.6c0-1.1-.2-1.9-1.4-1.9s-2.1.8-2.4 1.9c-.1.3-.1.6-.1 1v3.5h-1.5l.1-5.9zm12.6-1.8c.9 0 2.7.4 2.7 1.7v.8h-1.3V32c0-.5-.9-.8-1.4-.8-1.5 0-2.6 1.1-2.6 2.7 0 1.7 1.3 2.7 2.7 2.7 1.4 0 2.3-1.1 2.3-1.1l.6 1s-1.1 1.3-3.1 1.3c-2.4 0-4-1.7-4-3.9.1-2.2 1.7-4 4.1-4zm9.5 3.1c0-1.3-.8-1.9-1.8-1.9-1.1 0-2 .7-2.2 1.9h4zm-1.8-3.1c2.1 0 3.3 1.6 3.3 3.5v.6h-5.5c.1 1.6 1.3 2.5 2.6 2.5s2.2-.9 2.2-.9l.6 1s-1.1 1.1-2.9 1.1c-2.4 0-4-1.7-4-3.9-.1-2.3 1.6-3.9 3.7-3.9z" fill="#EF4126"/><path d="M69.2 13.3h-5.1l2.5-5.9 2.6 5.9zm-4-10.2l-7.5 17.3h3.5l1.7-4h7.6l1.7 4h3.6L68.2 3.1h-3zm16.2 3.2h3.1c3.3 0 5.6 2.2 5.6 5.5 0 3.2-2.2 5.4-5.6 5.4h-3.1V6.3zm3.1-3.1h-6.4l.1 17.1h6.4c5.3 0 9.1-3.6 9.1-8.6-.1-5-3.9-8.6-9.2-8.5zm15.776-.105l-3.4.01.05 17.1 3.399-.01-.049-17.1zM111 10.1c-3.2-.8-3.8-1.3-3.8-2.4 0-1.1 1-1.8 2.5-1.8 1.4 0 2.9.5 4.4 1.7l.2.1 1.8-2.6-.2-.1c-1.8-1.4-3.8-2.1-6.2-2.1-3.5 0-5.9 2.1-5.9 5.1 0 3.2 2.1 4.3 5.7 5.2 3.1.7 3.6 1.3 3.6 2.4 0 1.1-1.1 1.9-2.7 1.9-1.9 0-3.4-.6-5.1-2.1l-.2-.1-2 2.4.2.1c2 1.8 4.5 2.7 7.1 2.7 3.8 0 6.2-2.1 6.2-5.3-.1-2.7-1.7-4.2-5.6-5.1zm16.7-4.2c3.1 0 5.5 2.4 5.5 5.7 0 3.2-2.3 5.6-5.4 5.7-3.1 0-5.5-2.4-5.5-5.7 0-3.3 2.3-5.7 5.4-5.7zm0-3.2c-5 0-9 3.9-8.9 8.9 0 5 3.9 8.8 8.9 8.8s9-3.9 8.9-8.9c.1-5-3.8-8.8-8.9-8.8zm23.8 11.4L142.8 3h-3v17.1h3.4l-.1-11.4 8.9 11.4h2.8V2.9l-3.4.1.1 11.1zM51.9 3.3L47 11l-5-7.7h-3.5l.1 17.1h3.3V9l3.8 5.7h2.5L52 8.9v11.5h3.4V3.3h-3.5z" fill="#1A2454"/><path d="M21 21.5l-4.1 2.4c-.1.1-.2.1-.2.1-.2.1-.5.2-.7.2-.3 0-.5-.1-.7-.1-.1 0-.2-.1-.3-.2l-7.3-4.1c-.1-.1-.2-.1-.4-.2-.3-.2-.4-.5-.5-.9V6.2l-4-2.4-.6-.4c-.2-.1-.4-.1-.6-.1-.2 0-.4 0-.6.1l-.3.1c-.4.3-.6.7-.7 1.1v.3l.1 16.6v.2c0 .2.1.4.2.6.1.2.3.4.5.5l.1.1 14 8.1c.1.1.3.2.4.3.2.1.4.1.7.1.3 0 .6-.1.8-.2l.2-.1 10.2-6-6.2-3.6zm10.8-.9V4.5c-.1-.4-.3-.8-.7-1.1l-.4-.2c-.2-.1-.4-.1-.6-.1-.2 0-.4 0-.6.1l-.5.4-4.1 2.1v10.9l6.9 4z" fill="#00A98E"/><path d="M30.2 3L25 .6l-.7-.3-.4-.2c-.1-.1-.3-.1-.5-.1-.3 0-.6.1-.8.2l-.2.1-5.5 3.3-.4.2c-.2.1-.4.2-.6.2-.3 0-.5-.1-.8-.2-.1 0-.2-.1-.3-.2L9.3.4 9.1.2C8.9.1 8.6 0 8.3 0c-.2 0-.4 0-.5.1l-.5.2-.6.4-5.1 2.4-.7.3c.2-.1.4-.1.6-.1.2 0 .4 0 .6.1.2.1 12.9 7.5 13 7.5.2.1.5.2.8.2.3 0 .6-.1.8-.2.1 0 12.8-7.5 13-7.6.2-.1.4-.1.6-.1.2 0 .4 0 .6.1l-.7-.3z" fill="#1A2454"/></g><defs><clipPath id="clip0_803_748"><path fill="#fff" d="M0 0h154.8v38H0z"/></clipPath></defs></svg>