<svg width="100" height="51" fill="none" xmlns="http://www.w3.org/2000/svg"><path d="M45.1 8.6h-5.7V31h5.7V8.6z" fill="#232863"/><path d="M33 0c-2 0-3.7 1.6-3.7 3.7v35.6h6.4c2 0 3.7-1.6 3.7-3.7V0H33zm15.7 0c-2 0-3.7 1.6-3.7 3.7v35.6h6.4c2 0 3.7-1.6 3.7-3.7V0h-6.4zM65 0h-6.4v8.5c0 2 1.6 3.7 3.7 3.7h6.4V3.7C68.7 1.6 67 0 65 0zm0 14.2h-6.4v21.5c0 2 1.6 3.7 3.7 3.7h6.4V17.8c0-2-1.7-3.6-3.7-3.6zM82.1 0h-6.4c-2 0-3.7 1.6-3.7 3.7v35.6h6.4c2 0 3.7-1.6 3.7-3.7v-8c0-2 1.6-3.7 3.7-3.7h6.4c2 0 3.7-1.6 3.7-3.7v-6.4H82.2v-.3c.1-1.8 1.5-3.2 3.3-3.4h10c2 0 3.7-1.6 3.7-3.7V0H82.1z" fill="#232863"/><path d="M50.5 18.8c0-1.1-.9-2-2-2H45v-5.5h-3.7c-1.1 0-2 .9-2 2v3.5h-5.5v3.7c0 1.1.9 2 2 2h3.5V28H43c1.1 0 2-.9 2-2v-3.5h5.5v-3.7z" fill="#2CAEE4"/><path d="M6.4 0H0v10.4c.7-1.9 1.8-3.6 3.2-5 1.7-1.7 3.9-3 6.4-3.7C8.9.7 7.7 0 6.4 0z" fill="#232863"/><path d="M22.5 2H13c-1.1 0-2.1.1-3.1.4C7.4 3 5.2 4.3 3.5 6 1.7 7.8.5 10.1 0 12.7v22.9c0 2 1.6 3.7 3.7 3.7h6.4V18.7c0-1.7 1.4-3 3-3 1.4 0 2.6 1 3 2.4v17.6c0 2 1.6 3.7 3.7 3.7h6.4V5.8c0-2.1-1.7-3.8-3.7-3.8z" fill="#232863"/><path d="M6.1 48.7h-.7c-.1 0-.1 0-.2-.1l-.1-.1-.6-1.6H1.6L1 48.5c0 .1-.1.1-.1.1-.1 0-.1.1-.2.1H0l2.6-6.4h.9l2.6 6.4zm-4.2-2.4h2.4l-1-2.6c-.1-.2-.1-.4-.2-.6-.1.1-.1.2-.1.3 0 .1-.1.2-.1.3l-1 2.6zm5 2.4v-3.9l-.5-.1c-.1 0-.1 0-.2-.1l-.1-.1v-.3h.7v-.4c0-.3 0-.5.1-.7.1-.2.2-.4.3-.5.1-.1.3-.2.5-.3.2-.1.4-.1.6-.1.2 0 .4 0 .6.1v.4c0 .1 0 .1-.1.1h-.2c-.1 0-.3 0-.4.1-.1 0-.2.1-.3.2-.1.1-.1.2-.2.3 0 .1-.1.3-.1.5v.4H9v.6H7.8v3.9h-.9v-.1zm4.2 1.4c0 .1-.1.1-.1.1s-.1.1-.2.1h-.6l.8-1.8-1.9-4.3h.7c.1 0 .1 0 .2.1l.1.1 1.2 2.9c0 .1.1.1.1.2s0 .1.1.2c0-.1 0-.1.1-.2 0-.1 0-.1.1-.2l1.2-2.9s0-.1.1-.1h.7l-2.6 5.8zm6.6-1.4h-.6s-.1-.1-.1-.2v-.4c-.1.1-.2.2-.4.3-.1.1-.2.2-.4.2-.1.1-.3.1-.4.1h-.5c-.2 0-.3 0-.5-.1-.2 0-.3-.1-.4-.2-.1-.1-.2-.2-.3-.4-.1-.2-.1-.3-.1-.5s0-.4.1-.5c.1-.2.3-.3.5-.4.2-.1.5-.2.9-.3.4-.1.8-.1 1.3-.1v-.4c0-.4-.1-.6-.2-.8-.2-.2-.4-.3-.7-.3-.2 0-.4 0-.5.1-.1 0-.2.1-.3.2l-.1.1c-.1 0-.1.1-.2.1h-.1l-.1-.1-.1-.3c.3-.2.5-.4.8-.5.3-.1.6-.2 1-.2.3 0 .5 0 .7.1.2.1.4.2.5.4.1.2.2.3.3.5.1.2.1.4.1.7v2.9h-.2zm-2-.5h.4c.1 0 .2-.1.3-.1.1-.1.2-.1.3-.2l.3-.3v-.9c-.4 0-.7 0-.9.1-.3 0-.5.1-.6.2-.1.1-.3.2-.4.3-.1.1-.1.2-.1.3 0 .1 0 .2.1.3 0 .1.1.2.2.2.1.1.1.1.2.1h.2zm7.6-2.1v2.6h-.9v-2.6L20 42.2h.8c.1 0 .1 0 .2.1l.1.1 1.5 2.5c.1.1.1.2.2.3 0 .1.1.2.1.3 0-.1.1-.2.1-.3 0-.1.1-.2.1-.3l1.5-2.5.1-.1s.1-.1.2-.1h.8l-2.4 3.9zm4.1-2c.3 0 .5 0 .8.1.2.1.4.2.6.4.2.2.3.4.4.6.1.3.1.5.1.9v.3s-.1.1-.2.1h-3c0 .3 0 .5.1.8.1.2.2.4.3.5.1.1.3.2.4.3.2.1.4.1.6.1.2 0 .4 0 .5-.1.1 0 .3-.1.4-.2.1-.1.2-.1.3-.2.1-.1.1-.1.2-.1s.1 0 .2.1l.2.3c-.1.1-.2.2-.4.3-.1.1-.3.2-.4.2-.2.1-.3.1-.5.1h-.5c-.3 0-.6-.1-.9-.2-.3-.1-.5-.3-.7-.5-.2-.2-.3-.5-.5-.8-.1-.3-.2-.7-.2-1 0-.3 0-.6.1-.9.1-.3.2-.5.4-.7.2-.2.4-.4.7-.5.4.1.7.1 1 .1zm0 .6c-.4 0-.7.1-.9.3-.2.2-.4.5-.4.9h2.5c0-.2 0-.4-.1-.5-.1-.2-.1-.3-.2-.4-.1-.1-.2-.2-.4-.3h-.5zm4.3 4.1c-.4 0-.6-.1-.8-.3-.2-.2-.3-.5-.3-.9v-2.8h-.7v-.4l.7-.1.2-1.4s0-.1.1-.1h.5v1.6h1.3v.6h-1.3v2.7c0 .2 0 .3.1.4.1.1.2.1.4.1h.2c.1 0 .1 0 .2-.1l.1-.1h.1s.1 0 .1.1l.2.4c-.1.1-.3.2-.5.3-.2-.1-.4 0-.6 0zm2.7-4.6v2.9c0 .3.1.6.2.8.2.2.4.3.7.3.2 0 .5-.1.7-.2.2-.1.4-.3.6-.5v-3.4h.8v4.6h-.5c-.1 0-.2-.1-.2-.2l-.1-.5c-.2.2-.4.4-.7.5-.2.1-.5.2-.8.2-.2 0-.5 0-.7-.1-.2-.1-.3-.2-.5-.3-.1-.2-.2-.3-.3-.5-.1-.2-.1-.4-.1-.7v-2.9h.9zm4 4V48c0-.1.1-.1.1-.2s.1-.1.2-.1h.4c.1 0 .1.1.2.1.1.1.1.1.1.2v.4c0 .1-.1.1-.1.2-.1.1-.1.1-.2.1h-.4c-.1 0-.1-.1-.2-.1 0-.1-.1-.1-.1-.2v-.2z" fill="#C23E52"/><path d="M42.4 48.7v-6.4h2.1c.4 0 .7 0 1 .1.3.1.5.2.7.3.2.1.3.3.4.5.1.2.1.4.1.7 0 .2 0 .3-.1.5 0 .1-.1.3-.2.4-.1.1-.2.2-.4.3-.2.1-.3.2-.5.2.5.1.8.3 1.1.5.2.2.4.6.4 1 0 .3 0 .5-.2.7-.1.2-.2.4-.4.6-.2.2-.4.3-.7.4-.3.1-.6.1-1 .1h-2.3v.1zm.9-3.5h1.2c.2 0 .5 0 .6-.1.2-.1.3-.1.4-.2l.3-.3c.1-.1.1-.3.1-.4 0-.4-.1-.7-.3-.8-.3-.4-.6-.4-1.1-.4h-1.2v2.2zm0 .6V48h1.4c.2 0 .5 0 .6-.1.2-.1.3-.1.4-.2.1-.1.2-.2.3-.4.1-.1.1-.3.1-.5 0-.3-.1-.6-.4-.8-.2-.2-.6-.3-1.1-.3h-1.3v.1zm5.9-3.1v.2c0 .1-.1.1-.1.2-.1.1-.1.1-.2.1h-.4c-.1 0-.1-.1-.2-.1s-.1-.1-.1-.2v-.4c0-.1.1-.1.1-.2.1-.1.1-.1.2-.1h.4c.1 0 .1.1.2.1.1.1.1.1.1.2v.2zm-.2 1.5v4.6h-.8v-4.6h.8zm1.4 4.5v-4.6h.5c.1 0 .2.1.2.2l.1.5c.2-.2.4-.4.6-.5.2-.1.4-.2.7-.2.3 0 .6.1.7.3.2.2.3.4.4.7.1-.2.1-.3.2-.4l.3-.3c.1-.1.3-.1.4-.2.1 0 .3-.1.4-.1.2 0 .5 0 .6.1.2.1.3.2.5.3.1.1.2.3.3.5.1.2.1.5.1.7v2.9h-.8v-2.9c0-.4-.1-.6-.2-.8-.2-.2-.4-.3-.7-.3-.1 0-.3 0-.4.1-.1 0-.2.1-.3.2-.1.1-.2.2-.2.3-.1.1-.1.3-.1.5v2.9h-.8v-2.9c0-.4-.1-.6-.2-.8-.1-.2-.4-.3-.6-.3-.2 0-.4.1-.6.2-.2.1-.3.3-.5.4v3.4h-.6v.1zm10.8 0h-.6s-.1-.1-.1-.2l-.1-.4c-.1.1-.2.2-.4.3-.1.1-.2.2-.4.2-.1.1-.3.1-.4.1h-.5c-.2 0-.3 0-.5-.1-.2 0-.3-.1-.4-.2-.1-.1-.2-.2-.3-.4-.1-.2-.1-.3-.1-.5s0-.4.1-.5c.1-.2.3-.3.5-.4.2-.1.5-.2.9-.3.4-.1.8-.1 1.3-.1v-.4c0-.4-.1-.6-.2-.8-.2-.2-.4-.3-.7-.3-.2 0-.4 0-.5.1-.1 0-.2.1-.3.2-.1.1-.2.1-.3.2-.1 0-.1.1-.2.1h-.1l-.1-.1-.1-.3c.3-.2.5-.4.8-.5.3-.1.6-.2 1-.2.3 0 .5 0 .7.1.2.1.4.2.5.4.1.2.2.3.3.5.1.2.1.4.1.7v2.8h.1zm-2.1-.5h.4c.1 0 .2-.1.3-.1.1-.1.2-.1.3-.2l.3-.3v-.9c-.4 0-.7 0-.9.1-.3 0-.5.1-.6.2-.1.1-.3.2-.4.3-.1.1-.1.2-.1.3 0 .1 0 .2.1.3 0 .1.1.2.2.2.1.1.1.1.2.1h.2zm7.6-2.1v2.6h-.9v-2.6l-2.4-3.9h.8c.1 0 .1 0 .2.1l.1.1L66 45c.1.1.1.2.2.3 0 .1.1.2.1.3 0-.1.1-.2.1-.3 0-.1.1-.2.1-.3l1.5-2.5.1-.1s.1-.1.2-.1h.8l-2.4 3.8zm4.1-2c.3 0 .5 0 .8.1.2.1.4.2.6.4.2.2.3.4.4.6.1.3.1.5.1.9v.3s-.1.1-.2.1h-3c0 .3 0 .5.1.8.1.2.2.4.3.5.1.1.3.2.4.3.2.1.4.1.6.1.2 0 .4 0 .5-.1.1 0 .3-.1.4-.2.1-.1.2-.1.3-.2.1 0 .1-.1.2-.1s.1 0 .2.1l.2.3c-.1.1-.2.2-.4.3-.1.1-.3.2-.4.2-.2.1-.3.1-.5.1h-.5c-.3 0-.6-.1-.9-.2-.3-.1-.5-.3-.7-.5-.2-.2-.3-.5-.5-.8-.1-.3-.2-.7-.2-1 0-.3 0-.6.1-.9.1-.3.2-.5.4-.7.2-.2.4-.4.7-.5.4.1.7.1 1 .1zm.1.6c-.4 0-.7.1-.9.3-.2.2-.4.5-.4.9H72c0-.2 0-.4-.1-.5-.1-.2-.1-.3-.2-.4-.1-.1-.2-.2-.4-.3h-.4zm4.2 4.1c-.4 0-.6-.1-.8-.3-.2-.2-.3-.5-.3-.9v-2.8h-.6v-.4l.7-.1.2-1.4s0-.1.1-.1h.5v1.6h1.3v.6h-1.3v2.7c0 .2 0 .3.1.4.1.1.2.1.4.1h.2c.1 0 .1 0 .2-.1l.1-.1h.1s.1 0 .1.1l.2.4c-.1.1-.3.2-.5.3-.3-.1-.5 0-.7 0zm2.7-4.6v2.9c0 .3.1.6.2.8.2.2.4.3.7.3.2 0 .5-.1.7-.2.2-.1.4-.3.6-.5v-3.4h.8v4.6h-.5c-.1 0-.2-.1-.2-.2l-.1-.4c-.2.2-.4.4-.7.5-.2.1-.5.2-.8.2-.2 0-.5 0-.7-.1-.2-.1-.3-.2-.5-.3-.1-.2-.2-.3-.3-.5v-3.7h.8z" fill="#2AB1B5"/></svg>