<svg width="77" height="47" fill="none" xmlns="http://www.w3.org/2000/svg"><path d="M57.094 18.72c0 10.284-8.33 18.631-18.595 18.631-10.267 0-18.596-8.336-18.596-18.63C19.903 8.426 28.233.09 38.499.09s18.595 8.336 18.595 18.63z" fill="#D8DFE1"/><path d="M38.498 0c-10.3 0-18.685 8.392-18.685 18.72 0 10.317 8.385 18.72 18.685 18.72 10.3 0 18.686-8.403 18.686-18.72C57.184 8.392 48.798 0 38.498 0zm0 37.25c-10.199 0-18.506-8.313-18.506-18.54C19.992 8.492 28.3.178 38.498.178c10.2 0 18.507 8.314 18.507 18.541 0 10.217-8.308 18.53-18.507 18.53z" fill="#232021"/><path d="M24.08 21.563l.056.347-2.52.391-.055-.347 1.22-.19-1.41-1.04-.08-.47 1.188.895 1.32-1.32.079.447-1.12 1.085.437.336.884-.134zm-.27-3.861v1.902l-2.541-.01v-1.87h.302v1.522h.784v-1.398h.302v1.398h.85v-1.544h.303zm-2.194-2.45l.045-.336 2.508.414-.056.392-2.24.95-.01.012 2.037.336-.056.324-2.508-.414.056-.403 2.25-.94-2.026-.335zm3.022-1.388l-.112.336-.962-.336-1.758.436.134-.38 1.4-.313-.93-1.097.135-.38 1.13 1.41.963.324zm1.02-2.283l.168-.346-2.698-.291-.169.346 1.859 1.992.157-.313-.549-.57.448-.93.784.112zm-1.467.593l-.817-.861v-.011l1.175.156-.358.716zm1.365-4.844l.224-.27 1.97 1.6-.212.27-.93-.75-.839 1.052.918.738-.224.28-1.97-1.611.224-.269.817.66.84-1.04-.818-.66zm3.448-1.5c-.358-.414-1.097-.828-1.814-.19-.727.626-.436 1.42-.067 1.835.359.414 1.098.828 1.825.19.717-.638.414-1.421.056-1.835zm-.269 1.6c-.425.37-.962.257-1.354-.19-.392-.448-.426-1.007 0-1.365.414-.37.963-.258 1.354.19.404.448.426.996 0 1.365zm1.758-3.144c-.223-.325-.56-.258-.817-.112-.19.112-.47.358-.268.682.111.19.28.168.425.123l.716-.235c.325-.1.65-.067.851.28.314.515-.09.951-.459 1.175-.403.246-.638.224-.795.19-.29-.056-.436-.212-.56-.414l.28-.168c.236.392.627.314.907.146.213-.134.549-.403.359-.716-.135-.224-.292-.235-.706-.101l-.515.168c-.168.056-.548.157-.783-.224-.202-.336-.18-.806.347-1.13.772-.47 1.12-.056 1.276.168l-.258.168zm2.699-1.242c-.157-.38-.538-.549-.974-.38l-1.064.447.963 2.35.325-.123-.415-.996.75-.302c.515-.224.549-.672.415-.996zm-.639.76l-.638.27-.336-.818.65-.268c.269-.112.515-.101.627.201.134.313-.012.504-.303.616zm2.072.75l-.336.09-.694-2.45.336-.09.694 2.45zm-.156-2.629l2.06-.358.044.29-.85.157.391 2.205-.335.067-.392-2.216-.862.157-.056-.302zm3.324-.425l-.392.022-.829 2.596.359-.011.224-.761 1.03-.056.29.727.381-.022L37.793 1.5zm-.549 1.521l.347-1.141h.011l.437 1.097-.795.044zm2.218.728l1.299.112-.034.302-1.634-.146.224-2.54.336.034-.19 2.238zm4.287-1.455l-.38-.112-1.669 2.16.347.111.47-.637.986.302.022.783.358.112-.134-2.72zm-1.041 1.253l.716-.951h.012l.033 1.186-.761-.235zm3.561.616c.156-.359-.09-.616-.347-.739-.19-.09-.55-.201-.717.146-.09.19.011.324.134.425l.583.47c.268.212.403.503.223.872-.257.549-.84.448-1.242.258-.426-.213-.538-.414-.594-.56-.112-.268-.056-.48.045-.693l.291.145c-.201.414.079.705.37.85.224.101.638.235.795-.089.111-.235.044-.37-.291-.638l-.415-.336c-.134-.111-.425-.38-.224-.783.18-.358.582-.593 1.142-.324.806.391.66.906.549 1.163l-.302-.167zm2.161 1.376c.212-.336.01-.616-.224-.783-.18-.123-.515-.291-.74.033-.123.18-.033.325.068.437l.504.548c.235.257.324.56.09.895-.337.492-.896.313-1.266.056-.392-.269-.459-.492-.492-.649-.068-.29.01-.481.156-.683l.269.19c-.269.381-.034.706.235.896.213.145.593.336.795.033.145-.223.1-.358-.19-.682l-.37-.403c-.112-.123-.358-.436-.1-.806.223-.324.66-.492 1.175-.145.739.515.504.996.358 1.242l-.269-.18zm2.194.828c-.683-.671-1.456-.313-1.836.078-.381.392-.728 1.164-.045 1.835.683.672 1.444.314 1.825-.078.403-.38.739-1.152.056-1.835zm-.303 1.6c-.414.425-.962.504-1.365.112-.392-.392-.336-.94.078-1.365.425-.437.963-.504 1.366-.112.403.38.347.929-.079 1.365zm2.038 1.823c.302-.335.157-.693.01-.894-.268-.38-.772-.481-1.309-.09-.492.347-.739.795-.358 1.31.123.19.436.436.996.19l.19.28c-.861.436-1.354-.18-1.466-.336-.336-.47-.358-1.153.437-1.724.638-.458 1.343-.402 1.78.202.38.537.246 1.063-.068 1.343l-.212-.28zm-.908 2.004l-.156-.302 2.228-1.231.156.302-2.228 1.23zm2.912.179l-2.72.078.134.336.783-.034.392.952-.582.514.146.347 2.004-1.835-.157-.358zm-.291.313l-.885.772-.302-.738 1.187-.034zm.749.817l.56 2.014-.29.079-.236-.84-2.16.605-.09-.336 2.16-.604-.235-.84.291-.078zM53.02 16.46l-.068-.347 2.508-.425.067.336-2.508.436zm1.376.313c-.548.023-1.32.358-1.287 1.31.045.962.84 1.22 1.4 1.186.548-.023 1.332-.347 1.287-1.31-.056-.95-.851-1.208-1.4-1.186zm.101 2.149c-.604.022-1.052-.291-1.075-.85-.022-.56.392-.918.997-.94.593-.034 1.041.28 1.075.839.022.57-.404.928-.997.95zm1.008 2.741L55.46 22l-2.519-.336.045-.38 2.205-1.03.011-.01-2.037-.27.034-.335 2.53.336-.056.414-2.206 1.007 2.038.268zM24.884 29.06l.829 1.018-.235.19-1.041-1.287 1.959-1.6.224.258-1.736 1.42zm4.21 1.119l-1.108 1.23c-.347.392-.885.493-1.41.023-.516-.459-.437-.985-.124-1.343l1.142-1.264.258.235-1.075 1.197c-.37.414-.224.75.01.962.236.213.594.347.964-.067l1.075-1.197.268.224zm.694 3.502l-.358-.235-.023-1.253-1.164.503-.347-.235 1.478-.593-.056-1.521.358.234.023 1.187 1.074-.47.347.212-1.399.582.067 1.59zm1.825.839l-.325-.134.996-2.35.314.134-.985 2.35zm3.067-1.645l.325.09-.727 2.45-.37-.111-.672-2.35-.593 1.97-.313-.102.727-2.439.392.112.638 2.35h.011l.583-1.97zm1.289.291l2.071.224-.033.302-.863-.09-.246 2.227-.347-.044.246-2.227-.862-.09.034-.302zm4.253 2.754l-1.892.021-.034-2.54 1.87-.033.011.313-1.534.023.011.772 1.411-.012v.303l-1.4.022.012.85 1.545-.022v.302zm1.938-2.933l.324-.067.515 2.495-.38.079-1.69-1.746h-.012l.414 2.014-.324.068-.515-2.496.403-.078 1.668 1.757h.011l-.414-2.026zm3.437 1.5l-1.768.682-.907-2.383 1.746-.671.101.29-1.422.538.28.738 1.31-.503.112.28-1.321.503.313.794 1.445-.548.111.28zm1.993-1.925c-.213-.38-.526-.335-.705-.313a.56.56 0 00.033-.627c-.168-.302-.526-.436-.94-.212l-.997.548 1.243 2.227.963-.537c.504-.28.593-.728.403-1.086zm-2.16-.515l.548-.302c.336-.19.526-.145.65.056.145.28.022.459-.27.627l-.548.302-.38-.683zm1.6 1.343l-.65.358-.436-.783.593-.336c.247-.134.56-.223.728.079.157.257.079.514-.235.682zm3.168-1.936c-.123.011-.168-.01-.258-.123l-.302-.347c-.224-.268-.38-.235-.537-.19.067-.179.134-.403-.09-.705-.325-.425-.75-.28-1.086-.022l-.94.738 1.567 2.014.269-.212-.672-.862.66-.515c.325-.257.504-.089.639.079.056.078.302.38.436.47l.336-.258-.022-.067zm-1.59-.447l-.627.492-.537-.682.683-.538c.134-.1.38-.257.627.056.235.302.056.526-.146.672zm2.318-.213l-.247.246-1.78-1.824.247-.246 1.78 1.824zm.134-2.909c-.325-.235-.616-.045-.806.179-.134.168-.314.503-.011.738.168.135.313.056.436-.033l.582-.47c.27-.213.583-.28.896-.034.47.37.246.918-.022 1.265-.291.38-.515.436-.672.458-.291.045-.482-.044-.672-.2l.213-.258c.358.29.694.078.907-.18.157-.2.37-.57.078-.794-.201-.168-.347-.123-.694.146l-.425.335c-.135.112-.46.336-.806.056-.314-.246-.46-.693-.068-1.186.56-.705 1.03-.447 1.254-.28l-.19.258zM24.246 25.3a.602.602 0 01-.604.604.602.602 0 01-.605-.604c0-.336.269-.604.605-.604a.6.6 0 01.604.604zm29.188 0a.602.602 0 01-.604.604.602.602 0 01-.605-.604c0-.336.269-.604.605-.604a.6.6 0 01.604.604z" fill="#232021"/><path d="M52.27 18.72c0 7.62-6.17 13.797-13.771 13.797-7.602 0-13.77-6.176-13.77-13.797-.012-7.63 6.157-13.796 13.77-13.796 7.601 0 13.77 6.165 13.77 13.797z" fill="#910508"/><path d="M36.853 28.097l-1.321 2.194-.056-5.237-4.355 3.043 1.959-4.912-5.139 1.085 3.717-3.435-5.06-1.22 4.915-1.7-4.244-3.313 5.14.549-2.386-4.912 4.356 2.83-.27-5.538 3.024 4.319 2.026-5.147.873 5.393 3.908-4.118-1.232 5.27 5.06-2.193-3.235 4.387 5.553.112-4.792 2.63 5.06 2.371-5.317.47 3.482 4.253-5.005-1.578 1.433 5.091-3.84-3.525-.66 5.248-2.296-4.599-1.298 2.182z" fill="#C07515"/><path d="M39.159 15.677s.515-1.735-.56-1.735c-1.287 0-.884 1.813-.884 1.813l-1.77 1.354v5.047l2.441 1.309h.123l2.273-1.276v-5.102l-1.623-1.41z" fill="#232021"/><path d="M38.062 14.927c0-.335.168-.615.38-.615.202 0 .37.268.37.615 0 .336-.168.616-.37.616-.212-.012-.38-.28-.38-.616zm-.057 6.971c-.09.18-.223.135-.335.112-1.21-.246-1.165-.313-1.165-.414v-1.108c.168 0 1.332.37 1.534.426.37.123.056.805-.034.984zm0-1.656c-.09.18-.223.135-.335.112-1.21-.246-1.165-.313-1.165-.414v-1.108c.168 0 1.332.37 1.534.426.37.111.056.794-.034.984zm0-1.578c-.09.18-.223.135-.335.112-1.21-.246-1.165-.313-1.165-.414v-1.107c.168 0 1.332.369 1.534.425.37.112.056.794-.034.984zm1.02 3.346c-.112.023-.246.067-.336-.112-.1-.179-.414-.861-.044-.973.201-.067 1.377-.425 1.533-.425.012 0 .012.895.012 1.096 0 .112.044.168-1.165.414zm1.165-2.07c0 .1.044.168-1.165.414-.112.023-.246.056-.336-.112-.1-.179-.414-.861-.044-.973.201-.067 1.377-.425 1.545-.425v1.096zm0-1.578c0 .101.044.168-1.165.415-.112.022-.246.067-.336-.112-.1-.18-.414-.862-.044-.974.201-.067 1.377-.425 1.545-.425v1.096z" fill="#D8DFE1"/><path d="M3.972 42.073a4.311 4.311 0 00-.549.09H.535c-.124-.022-.415-.078-.515-.09l-.012.023c-.01.212-.01.873 0 1.119l.112-.034c.079-.134.325-.604.403-.783l1.109.056v1.89c0 1.511-.011 1.657-.023 1.892l-.716.213-.056.167c.37 0 .728-.01 1.086-.01.347 0 .716.01 1.063.01l.056-.167-.783-.213c0-.201-.045-.38-.045-2.115v-1.667l1.175-.056c.034.112.213.638.28.805l.112-.055c.067-.269.18-.884.19-1.075zm4.646 4.152c-.022-.078-.044-1.164-.044-1.925v-1.768l.537-.201.056-.168c-.258 0-.571.011-.885.011-.19 0-.38-.011-.582-.011l-.056.134.336.235v1.522H5.63v-1.522l.29-.212.045-.157c-.18 0-.38.011-.638.011-.246 0-.526-.011-.773-.011l-.056.157.538.19v1.745c0 .817-.034 1.813-.045 1.981l-.504.201-.067.168c.269 0 .593-.01.884-.01.224 0 .415.01.583.01l.056-.156-.314-.246c-.022-.694 0-1.254 0-1.813h1.478c.358 0 .716-.011.873-.045 0 .627.011 1.22-.011 1.88l-.269.212-.045.168c.19 0 .404-.01.627-.01.314 0 .627.01.907.01l.056-.168-.627-.212zm4.243-.683c-.157.18-.448.605-.582.795l-1.433-.056c-.022-.56-.022-1.388-.022-1.835.19 0 1.231.078 1.332.078.078 0 .38-.336.403-.392l-.022-.056c-.415.045-1.086.079-1.713.079v-1.679l1.366-.056c.056.146.223.56.29.728l.112-.056c.045-.213.157-.795.168-.974l-.01-.011c-.124 0-.493.056-.56.067h-1.68c-.268 0-.548-.011-.828-.011l-.045.157.582.19v1.79c0 1.13-.022 1.88-.045 1.958l-.57.19-.057.169c.28 0 .616-.012.918-.012h1.064c.392 0 .784 0 1.22.023.079-.224.224-.873.235-1.086h-.123zm6.235-3.368c-.212 0-.436-.011-.683-.011l-.067.157.571.234c0 .426.045 2.876.045 3.19h-.022a102.922 102.922 0 01-2.743-3.223 2.762 2.762 0 01-.258-.38l-.918.033-.067.157c.414.134.47.111.739.514-.034 1.959-.1 3.078-.123 3.369l-.549.246-.045.167c.247 0 .527-.01.784-.01.291 0 .537.01.795.01l.045-.167-.616-.246c-.045-.291-.056-1.914-.045-3.066h.011c1.389 1.723 2.575 3.177 3.169 3.603l.078-.034c.023-.168.034-.47.034-.682.01-1.243.067-3.167.078-3.47l.571-.223.045-.168c-.28-.011-.582 0-.829 0zm4.826 3.894c-.649-1.611-1.31-3.29-1.41-3.57-.079-.234-.1-.357-.1-.458l-.046-.034-.503.325.067.179c.022.067.01.134-.023.212-.548 1.4-1.276 3.1-1.477 3.492l-.47.223-.046.168c.236 0 .46-.011.695-.011.257 0 .56.011.794.011l.045-.156-.593-.224c.112-.325.213-.582.459-1.22.918.011 1.22-.011 1.5-.034.269.65.46 1.12.504 1.299l-.246.19-.045.145c.257 0 .481-.011.716-.011.269 0 .549.011.795.011l.045-.156c-.437-.146-.537-.202-.66-.38zm-2.474-1.41c.146-.436.325-.861.638-1.69h.012c.179.504.38 1.03.627 1.724-.28 0-1.086-.034-1.277-.034zm4.702 1.589a38.64 38.64 0 01-.034-1.958v-1.768l.493-.19.045-.157c-.269 0-.56.011-.84.011-.257 0-.526-.01-.784-.01l-.044.156.537.19v1.78c0 1.118-.011 1.846-.045 1.957l-.526.202-.045.168c.269 0 .582-.011.918-.011.347 0 .65.01.907.01l.045-.167-.627-.213zm4.332-.336c-.38-.492-.884-1.22-1.03-1.465v-.012c.481-.156 1.052-.458 1.052-1.186 0-.75-.548-1.13-1.645-1.13-.538 0-1.277.067-1.59.134l-.056.168.571.079v1.958c0 .884-.034 1.522-.045 1.779l-.504.213-.044.167c.29 0 .582-.01.873-.01.325 0 .627.01.951.01l.045-.167-.66-.213c-.011-.336-.011-.85-.011-1.78v-2.07c.783-.022 1.477.124 1.477.974 0 .672-.481.951-1.12 1.12l-.022.044c.437.682.907 1.331 1.198 1.656.28.313.571.504 1.086.537l.045-.056c-.078-.123-.19-.246-.57-.75zm3.28-3.871c-1.04 0-2.35.794-2.35 2.383 0 1.567 1.242 2.294 2.362 2.294 1.108 0 2.373-.727 2.34-2.417-.012-1.544-1.277-2.26-2.352-2.26zm.09 4.442c-1.075 0-1.735-1.063-1.735-2.16 0-1.152.582-2.036 1.59-2.036h.01c.986 0 1.691.974 1.691 2.092.011 1.019-.403 2.104-1.556 2.104zm4.971-2.26v-.045c.504-.078 1.108-.38 1.108-1.04 0-.728-.615-1.019-1.657-1.019-.425 0-1.231.056-1.545.09l-.056.156.571.135v2.17c0 .918-.022 1.477-.044 1.578l-.493.19-.045.168c.437.011.851.023 1.299.023.918 0 2.25-.157 2.25-1.31.011-.604-.403-.995-1.388-1.096zm-.974-1.846h.201c.415 0 .683.044.885.156.235.123.358.336.358.65 0 .749-.683.928-1.444.94v-1.746zm1.668 2.931c0 .235-.045.481-.224.683-.213.235-.548.38-1.422.38-.044-.503-.022-1.264-.022-1.813v-.179c1.433-.044 1.668.426 1.668.93zm2.419.94a38.64 38.64 0 01-.034-1.958v-1.768l.493-.19.044-.157c-.28 0-.56.011-.84.011-.268 0-.525-.01-.783-.01l-.045.156.526.19v1.78c0 1.118-.01 1.846-.044 1.957l-.526.202-.045.168c.268 0 .582-.011.918-.011.347 0 .65.01.895.01l.045-.167-.604-.213zm6.806-.022c-.034-.078-.045-1.164-.045-1.925v-1.768l.537-.201.056-.168c-.268 0-.582.011-.895.011-.19 0-.392-.011-.582-.011l-.056.134.336.235v1.522h-2.34v-1.522l.29-.212.057-.157c-.19 0-.38.011-.65.011-.246 0-.526-.011-.772-.011l-.067.157.537.19v1.745c0 .817-.033 1.813-.045 1.981l-.503.201-.056.168c.268 0 .593-.01.884-.01.235 0 .414.01.582.01l.056-.156-.302-.246c-.023-.694-.011-1.254-.011-1.813h1.466c.359 0 .717-.011.874-.045 0 .627.01 1.22 0 1.88l-.27.212-.044.168c.19 0 .392-.01.627-.01.313 0 .627.01.907.01l.056-.168-.627-.212zm3.471-4.185c-1.041 0-2.34.794-2.34 2.383 0 1.567 1.243 2.294 2.363 2.294 1.108 0 2.373-.727 2.34-2.417-.012-1.544-1.288-2.26-2.363-2.26zm.1 4.442c-1.074 0-1.734-1.063-1.734-2.16 0-1.152.582-2.036 1.59-2.036h.01c.997 0 1.691.974 1.691 2.092 0 1.019-.414 2.104-1.556 2.104zm4.971-2.182c-.38-.201-.739-.37-1.008-.537-.257-.157-.391-.347-.391-.66 0-.403.313-.772.84-.772.28 0 .503.1.593.168.044.123.156.492.235.66l.1-.056c.101-.246.224-.84.236-1.018l-.056-.034c-.157.056-.359.134-.448.213a1.236 1.236 0 00-.717-.213c-.862 0-1.343.615-1.343 1.22 0 .402.179.772.638 1.051.325.202.66.359 1.008.549.336.19.492.414.492.716 0 .548-.403.873-1.007.884-.359.011-.571-.078-.66-.123-.135-.66-.18-.85-.214-.94l-.112.045c-.056.1-.268.66-.302.839.19.179.784.447 1.321.447.571 0 1.579-.268 1.579-1.331.011-.38-.112-.761-.784-1.108zm2.833.325l.067.167a.825.825 0 00.269.034c.526 0 1.466-.313 1.466-1.388 0-.358-.145-.783-.548-1.029-.325-.212-.728-.28-1.277-.28-.37 0-.918.045-1.41.101l-.056.157.548.134v1.712c0 1.544 0 1.88-.022 2.014l-.47.213-.045.156c.269 0 .548-.01.817-.01.347 0 .694.01 1.041.01l.068-.167-.74-.213c0-.112-.044-.425-.044-2.025v-1.824c.84-.023 1.478.235 1.478 1.096 0 .627-.359 1.086-1.142 1.142zm3.47 1.622a38.71 38.71 0 01-.033-1.958v-1.768l.493-.19.044-.157c-.28 0-.56.011-.828.011-.269 0-.526-.01-.795-.01l-.045.156.526.19v1.78c0 1.118-.01 1.846-.044 1.957l-.527.202-.044.168c.257 0 .582-.011.918-.011.347 0 .649.01.907.01l.044-.167-.616-.213zm5.117-4.174a4.844 4.844 0 00-.56.09h-2.877c-.123-.022-.414-.078-.515-.09l-.022.023c-.011.212-.011.873 0 1.119l.112-.034c.078-.134.325-.604.414-.783l1.109.056v1.89c0 1.511-.012 1.657-.023 1.892l-.716.213-.045.167c.37 0 .727-.01 1.086-.01.347 0 .705.01 1.052.01l.067-.167-.794-.213c0-.201-.045-.38-.045-2.115v-1.667l1.175-.056c.034.112.213.638.269.805l.112-.056c.067-.268.179-.883.19-1.074h.011zm3.885 3.995c-.65-1.611-1.31-3.29-1.41-3.57-.08-.234-.102-.357-.102-.458l-.044-.034-.504.325.067.179c.022.067.011.134-.022.212-.549 1.4-1.277 3.1-1.478 3.492l-.47.223-.045.168c.235 0 .459-.011.694-.011.258 0 .56.011.795.011l.045-.156-.594-.224c.112-.325.213-.582.46-1.22.917.011 1.23-.011 1.5-.034.268.65.447 1.12.503 1.299l-.246.19-.045.145c.258 0 .482-.011.717-.011.257 0 .548.011.795.011l.044-.156c-.436-.146-.537-.202-.66-.38zm-2.474-1.41c.145-.436.324-.861.627-1.69h.01c.18.504.382 1.03.639 1.724-.269 0-1.086-.034-1.276-.034zm6.762.828c-.157.168-.46.627-.627.884l-1.444-.09a52.185 52.185 0 01-.023-1.991v-1.768l.47-.201.056-.157c-.257 0-.537.011-.828.011-.302 0-.571-.011-.806-.011l-.056.157.56.201v1.768c0 1.052-.011 1.869-.023 1.958l-.56.202-.044.156c.29 0 .615-.01.94-.01 1.5 0 2.049.022 2.284.022.067-.18.202-.85.224-1.153l-.123.022z" fill="#910508"/></svg>