<svg width="123" height="75" fill="none" xmlns="http://www.w3.org/2000/svg"><path d="M91.203 29.904c0 16.427-13.306 29.761-29.705 29.761-16.4 0-29.705-13.316-29.705-29.76C31.793 13.46 45.099.142 61.498.142c16.4 0 29.705 13.317 29.705 29.761z" fill="#D8DFE1"/><path d="M61.498 0C45.044 0 31.649 13.406 31.649 29.904c0 16.48 13.395 29.904 29.849 29.904 16.453 0 29.848-13.423 29.848-29.904C91.346 13.406 77.95 0 61.497 0zm0 59.504c-16.293 0-29.562-13.28-29.562-29.618 0-16.32 13.27-29.6 29.562-29.6s29.561 13.28 29.561 29.618c0 16.32-13.27 29.6-29.561 29.6z" fill="#232021"/><path d="M38.465 34.444l.09.554-4.025.626-.09-.554 1.95-.304-2.253-1.662-.125-.75 1.895 1.429 2.11-2.11.126.716-1.788 1.734.697.536 1.413-.215zm-.431-6.166v3.038l-4.06-.017v-2.985h.484v2.43h1.251V28.51h.483v2.234h1.36v-2.466h.482zm-3.504-3.915l.072-.536 4.006.661-.09.626-3.577 1.52-.018.017 3.255.536-.089.519-4.006-.662.09-.643 3.594-1.502-3.237-.536zm4.828-2.216l-.18.536-1.537-.536-2.808.697.215-.608 2.235-.5-1.484-1.752.214-.608 1.807 2.252 1.538.519zm1.628-3.647l.268-.554-4.31-.465-.268.554 2.968 3.182.25-.5-.875-.912.715-1.484 1.252.18zm-2.343.948l-1.306-1.377v-.018l1.878.25-.572 1.145zm2.181-7.74l.358-.43 3.147 2.557-.34.429-1.484-1.198-1.341 1.68 1.466 1.18-.357.447-3.148-2.574.358-.429 1.305 1.055 1.342-1.663-1.306-1.054zm5.507-2.395c-.572-.662-1.752-1.323-2.897-.304-1.162 1-.697 2.27-.107 2.931.572.662 1.753 1.323 2.915.304 1.145-1.019.662-2.27.09-2.931zm-.429 2.556c-.68.59-1.538.41-2.164-.304-.626-.715-.68-1.609 0-2.18.662-.59 1.538-.412 2.164.303.644.715.68 1.591 0 2.18zm2.808-5.023c-.357-.518-.894-.411-1.305-.179-.304.179-.751.572-.43 1.09.18.304.448.269.68.197L48.8 7.58c.519-.161 1.037-.107 1.359.447.5.822-.143 1.519-.733 1.876-.644.394-1.02.358-1.27.304-.465-.09-.697-.34-.894-.661l.447-.268c.375.625 1.001.5 1.448.232.34-.214.877-.643.573-1.144-.215-.357-.465-.375-1.127-.16l-.822.267c-.269.09-.877.25-1.252-.357-.322-.536-.287-1.287.554-1.805 1.234-.751 1.788-.09 2.039.268l-.412.268zm4.31-1.984c-.25-.608-.858-.876-1.555-.608l-1.7.715 1.539 3.754.518-.197-.661-1.59 1.198-.483c.822-.358.876-1.073.661-1.591zm-1.019 1.215l-1.02.43-.536-1.305 1.038-.43c.429-.178.822-.16 1.001.322.215.5-.018.805-.483.983zm3.309 1.198l-.536.143-1.109-3.915.537-.143 1.108 3.915zm-.25-4.2l3.291-.572.072.464-1.36.25.627 3.522-.537.107-.626-3.54-1.377.251-.09-.482zm5.31-.68l-.626.036-1.323 4.147.572-.018.358-1.215 1.645-.09.465 1.162.608-.036-1.699-3.986zm-.876 2.431l.554-1.823h.018l.698 1.752-1.27.071zm3.543 1.162l2.075.179-.054.483-2.61-.233.357-4.057.537.053-.305 3.575zm6.848-2.324l-.608-.179-2.665 3.45.555.179.75-1.019 1.575.483.035 1.251.573.179-.215-4.344zm-1.663 2.002l1.144-1.52h.018l.054 1.896-1.216-.376zm5.688.984c.25-.573-.143-.984-.555-1.18-.304-.143-.876-.322-1.144.232-.143.304.018.518.215.68l.93.75c.429.34.643.804.357 1.394-.411.876-1.341.715-1.985.411-.68-.34-.858-.661-.948-.893-.179-.43-.09-.77.072-1.109l.465.233c-.322.661.125 1.126.59 1.358.358.161 1.02.376 1.27-.143.178-.375.071-.59-.465-1.019l-.662-.536c-.215-.179-.68-.608-.358-1.251.286-.572.93-.947 1.824-.519 1.288.626 1.055 1.448.877 1.86l-.483-.269zm3.452 2.198c.34-.536.018-.983-.358-1.251-.286-.197-.823-.465-1.18.053-.197.286-.054.519.107.697l.805.876c.375.411.518.894.143 1.43-.537.787-1.43.5-2.021.09-.626-.43-.733-.787-.787-1.037-.107-.465.018-.769.25-1.09l.43.303c-.43.608-.054 1.127.375 1.43.34.233.948.537 1.27.054.233-.357.16-.572-.304-1.09l-.59-.644c-.18-.196-.572-.697-.161-1.287.358-.518 1.055-.786 1.878-.232 1.18.822.804 1.59.572 1.984l-.43-.286zm3.505 1.322c-1.091-1.072-2.325-.5-2.933.126-.608.625-1.163 1.859-.072 2.931 1.091 1.073 2.307.5 2.915-.125.644-.608 1.18-1.841.09-2.931zm-.483 2.557c-.662.679-1.538.804-2.182.178-.626-.625-.537-1.501.125-2.18.68-.697 1.538-.805 2.182-.18.644.609.554 1.485-.125 2.182zm3.254 2.913c.483-.536.25-1.108.018-1.43-.429-.608-1.234-.769-2.092-.143-.787.554-1.18 1.27-.572 2.091.196.304.697.698 1.591.304l.304.447c-1.377.697-2.164-.286-2.343-.536-.536-.75-.572-1.841.698-2.753 1.02-.733 2.146-.643 2.843.322.608.858.394 1.698-.107 2.145l-.34-.447zm-1.449 3.2l-.25-.483 3.558-1.966.25.483-3.558 1.966zm4.651.286l-4.346.125.215.536 1.252-.053.626 1.519-.93.822.232.554 3.201-2.931-.25-.572zm-.465.5l-1.413 1.234-.483-1.18 1.896-.054zm1.197 1.305l.894 3.218-.465.125-.375-1.34-3.452.964-.143-.536 3.452-.965-.376-1.34.465-.126zm-2.879 5.363l-.107-.555 4.006-.679.107.536-4.006.698zm2.2.5c-.876.036-2.11.572-2.056 2.091.071 1.537 1.34 1.949 2.235 1.895.876-.036 2.128-.554 2.057-2.091-.09-1.52-1.36-1.93-2.236-1.895zm.161 3.432c-.966.036-1.68-.465-1.717-1.359-.035-.893.626-1.465 1.592-1.501.948-.054 1.663.447 1.717 1.34.036.912-.644 1.484-1.592 1.52zm1.61 4.379l-.072.537-4.024-.537.072-.607 3.523-1.645.018-.018-3.255-.429.054-.536 4.041.536-.089.662-3.523 1.608 3.255.43zM39.75 46.42l1.324 1.627-.376.304-1.663-2.056 3.13-2.556.358.411-2.773 2.27zm6.725 1.788l-1.77 1.966c-.555.625-1.413.786-2.254.036-.822-.733-.697-1.573-.196-2.145l1.824-2.02.411.375-1.717 1.913c-.59.661-.357 1.197.018 1.537.376.34.948.554 1.538-.107l1.717-1.913.43.358zm1.109 5.594l-.572-.375-.036-2.002-1.86.805-.554-.376 2.36-.947-.09-2.431.573.375.036 1.895 1.717-.75.554.339-2.235.93.107 2.537zm2.914 1.341l-.518-.214 1.591-3.754.5.214-1.573 3.754zm4.902-2.628l.518.143-1.163 3.915-.59-.179-1.073-3.753-.948 3.145-.5-.16 1.162-3.897.626.179 1.02 3.753h.017l.93-3.146zm2.057.465l3.309.358-.054.482-1.377-.143-.394 3.557-.554-.071.393-3.557-1.377-.143.054-.483zm6.793 4.397l-3.022.036-.053-4.057 2.986-.054.018.5-2.45.036.018 1.234L64 55.054v.482l-2.235.036.018 1.358 2.468-.035v.482zm3.096-4.683l.519-.107.823 3.986-.608.125-2.7-2.788h-.019l.662 3.217-.519.107-.822-3.986.644-.125 2.664 2.807h.018l-.662-3.236zm5.492 2.396l-2.826 1.09-1.448-3.807 2.79-1.073.16.465-2.27.858.446 1.18 2.093-.805.178.447-2.11.804.5 1.27 2.308-.876.179.447zm3.182-3.075c-.34-.608-.84-.536-1.126-.5a.893.893 0 00.053-1.001c-.268-.483-.84-.698-1.502-.34l-1.591.876 1.985 3.557 1.538-.858c.804-.447.948-1.162.643-1.734zm-3.451-.822l.876-.483c.537-.304.84-.232 1.037.09.233.446.036.732-.429 1l-.876.483-.608-1.09zm2.557 2.145l-1.037.572-.698-1.252.948-.536c.394-.214.895-.357 1.163.125.25.411.125.823-.376 1.09zm5.06-3.093c-.196.018-.268-.017-.411-.196l-.483-.554c-.358-.43-.608-.376-.858-.304.107-.286.214-.644-.143-1.126-.519-.68-1.198-.447-1.735-.036l-1.502 1.18 2.503 3.217.43-.34-1.073-1.376 1.055-.822c.518-.411.805-.143 1.02.125.089.125.482.608.697.75l.536-.41-.036-.108zm-2.54-.715l-1 .787-.86-1.09 1.092-.858c.215-.161.608-.412 1.001.089.376.483.09.84-.232 1.072zm3.704-.34l-.394.394-2.844-2.914.394-.393 2.843 2.914zm.214-4.646c-.52-.376-.984-.072-1.288.286-.215.268-.5.804-.018 1.18.268.214.5.089.698-.054l.93-.751c.429-.34.93-.447 1.43-.054.751.59.394 1.466-.036 2.02-.465.608-.822.697-1.073.733-.465.071-.769-.072-1.073-.322l.34-.411c.572.465 1.109.125 1.449-.286.25-.322.59-.911.125-1.269-.322-.268-.555-.197-1.109.232l-.68.537c-.214.178-.733.536-1.287.089-.5-.393-.733-1.108-.107-1.895.894-1.126 1.645-.715 2.003-.447l-.304.412zm-42.833-4.13a.961.961 0 01-.965.965.961.961 0 01-.966-.965c0-.536.429-.965.966-.965.536 0 .965.429.965.965zm46.625 0a.961.961 0 01-.965.965.961.961 0 01-.966-.965c0-.536.429-.965.966-.965.536 0 .965.429.965.965z" fill="#232021"/><path d="M83.495 29.904c0 12.173-9.854 22.04-21.997 22.04s-21.997-9.867-21.997-22.04c-.018-12.19 9.836-22.039 21.997-22.039 12.143 0 21.997 9.849 21.997 22.04z" fill="#910508"/><path d="M58.869 44.883l-2.11 3.503-.09-8.365-6.957 4.862 3.13-7.847-8.209 1.734 5.938-5.488-8.084-1.948 7.851-2.717-6.778-5.29 8.209.875-3.81-7.847 6.958 4.522-.43-8.847 4.829 6.9 3.237-8.223 1.395 8.615 6.241-6.577-1.967 8.418 8.084-3.503-5.169 7.007 8.87.179-7.654 4.2 8.084 3.79-8.495.75 5.562 6.793-7.994-2.52 2.289 8.132-6.134-5.63-1.055 8.383-3.667-7.347-2.074 3.486z" fill="#C07515"/><path d="M62.553 25.042s.822-2.77-.895-2.77c-2.056 0-1.412 2.895-1.412 2.895L57.42 27.33v8.062l3.899 2.091h.196l3.63-2.038v-8.15l-2.592-2.253z" fill="#232021"/><path d="M60.8 23.845c0-.536.269-.983.609-.983.322 0 .59.429.59.983 0 .536-.268.983-.59.983-.34-.018-.608-.447-.608-.983zm-.09 11.135c-.143.287-.357.215-.536.18-1.932-.394-1.86-.501-1.86-.662v-1.77c.268 0 2.128.59 2.45.68.59.196.09 1.287-.054 1.573zm0-2.645c-.143.286-.357.215-.536.179-1.932-.393-1.86-.5-1.86-.661v-1.77c.268 0 2.128.59 2.45.68.59.178.09 1.268-.054 1.572zm0-2.52c-.143.286-.357.214-.536.178-1.932-.393-1.86-.5-1.86-.66v-1.77c.268 0 2.128.59 2.45.679.59.178.09 1.269-.054 1.573zm1.63 5.345c-.18.035-.394.107-.537-.18-.161-.285-.662-1.376-.072-1.555.322-.107 2.2-.679 2.45-.679.018 0 .018 1.43.018 1.752 0 .179.072.268-1.86.661zm1.86-3.308c0 .161.07.269-1.86.662-.18.036-.394.09-.537-.179-.161-.286-.662-1.376-.072-1.555.322-.107 2.2-.68 2.468-.68v1.752zm0-2.52c0 .161.07.268-1.86.662-.18.035-.394.107-.537-.18-.161-.285-.662-1.375-.072-1.554.322-.107 2.2-.68 2.468-.68v1.752z" fill="#D8DFE1"/><path d="M6.344 67.208a7.05 7.05 0 00-.876.143H.854c-.197-.035-.662-.125-.823-.143l-.018.036c-.017.34-.017 1.394 0 1.787l.18-.053c.124-.215.518-.965.643-1.251l1.77.089v3.02c0 2.414-.017 2.646-.035 3.022l-1.145.34-.09.267c.591 0 1.163-.018 1.736-.018.554 0 1.144.018 1.699.018l.089-.268-1.252-.34c0-.321-.071-.607-.071-3.378v-2.663l1.877-.09c.054.18.34 1.02.447 1.288l.18-.09c.107-.429.285-1.412.303-1.716zm7.423 6.632c-.036-.125-.072-1.859-.072-3.075v-2.824l.859-.321.09-.269c-.412 0-.913.018-1.414.018-.304 0-.608-.018-.93-.018l-.089.215.537.375v2.431H8.992v-2.43l.465-.34.072-.25c-.287 0-.609.017-1.02.017-.393 0-.84-.018-1.234-.018l-.09.25.86.305v2.788c0 1.305-.054 2.896-.072 3.164l-.805.322-.107.268c.429 0 .947-.018 1.412-.018.358 0 .662.018.93.018l.09-.25-.501-.394c-.036-1.108 0-2.002 0-2.895h2.36c.573 0 1.145-.018 1.396-.072 0 1.001.018 1.948-.018 3.003l-.43.34-.071.268c.304 0 .644-.018 1.002-.018.5 0 1.001.018 1.448.018l.09-.268-1.002-.34zm6.778-1.09c-.25.286-.716.965-.93 1.269l-2.29-.09c-.035-.893-.035-2.216-.035-2.931.304 0 1.967.125 2.128.125.125 0 .608-.536.644-.626l-.036-.089c-.662.072-1.735.125-2.736.125v-2.681l2.182-.09c.089.233.357.894.464 1.162l.18-.089c.07-.34.25-1.269.268-1.555l-.018-.018c-.197 0-.787.09-.894.107h-2.683c-.43 0-.876-.017-1.323-.017l-.072.25.93.304v2.86c0 1.805-.036 3.002-.072 3.128l-.912.303-.089.269c.447 0 .984-.018 1.466-.018h1.7c.625 0 1.251 0 1.949.035.125-.357.357-1.394.375-1.733h-.196zm9.96-5.38c-.34 0-.698-.019-1.091-.019l-.108.25.913.376c0 .679.071 4.593.071 5.094h-.036c-1.43-1.626-2.95-3.378-4.381-5.148a4.4 4.4 0 01-.412-.608l-1.466.054-.107.25c.661.215.75.179 1.18.823-.054 3.128-.16 4.915-.197 5.38l-.876.393-.072.268c.394 0 .841-.018 1.252-.018.465 0 .859.018 1.27.018l.072-.268-.984-.393c-.072-.465-.09-3.057-.072-4.898h.018c2.218 2.753 4.114 5.076 5.062 5.756l.125-.054c.035-.268.053-.75.053-1.09.018-1.984.108-5.059.125-5.541l.913-.358.071-.268c-.447-.018-.93 0-1.323 0zm7.709 6.22c-1.037-2.574-2.093-5.256-2.253-5.702-.126-.376-.161-.572-.161-.733l-.072-.054-.805.518.108.286c.035.108.017.215-.036.34-.877 2.234-2.039 4.951-2.36 5.577l-.752.357-.072.269c.376 0 .734-.018 1.11-.018.41 0 .894.017 1.27.017l.07-.25-.947-.357c.179-.519.34-.93.733-1.949 1.467.018 1.95-.017 2.396-.053.43 1.037.734 1.787.805 2.073l-.393.304-.072.233c.412 0 .77-.018 1.145-.018.429 0 .876.017 1.27.017l.071-.25c-.697-.232-.858-.322-1.055-.608zm-3.952-2.253c.232-.697.518-1.376 1.019-2.699h.018c.286.805.608 1.645 1.001 2.753-.447 0-1.734-.054-2.038-.054zm7.51 2.539c-.018-.197-.053-1.341-.053-3.128v-2.825l.786-.303.072-.25c-.43 0-.894.017-1.341.017-.412 0-.84-.018-1.252-.018l-.072.25.859.304v2.842c0 1.788-.018 2.95-.072 3.129l-.84.321-.072.268c.43 0 .93-.017 1.467-.017.554 0 1.037.017 1.448.017l.072-.268-1.002-.34zm6.92-.536c-.608-.787-1.412-1.95-1.645-2.342v-.018c.77-.25 1.681-.733 1.681-1.895 0-1.197-.876-1.805-2.629-1.805-.858 0-2.038.107-2.54.214l-.089.268.912.126v3.128c0 1.412-.053 2.43-.071 2.842l-.805.34-.071.267c.465 0 .93-.017 1.395-.017.518 0 1.001.017 1.52.017l.071-.268-1.055-.34c-.018-.536-.018-1.358-.018-2.841v-3.307c1.252-.036 2.36.196 2.36 1.555 0 1.072-.768 1.52-1.788 1.787l-.035.072c.697 1.09 1.448 2.127 1.913 2.645.447.5.912.805 1.735.858l.072-.09c-.126-.196-.304-.392-.913-1.197zm5.24-6.185c-1.663 0-3.755 1.269-3.755 3.807 0 2.502 1.985 3.664 3.773 3.664 1.77 0 3.792-1.162 3.738-3.86-.018-2.467-2.039-3.611-3.756-3.611zm.143 7.096c-1.716 0-2.772-1.698-2.772-3.45 0-1.841.93-3.253 2.54-3.253h.018c1.574 0 2.7 1.555 2.7 3.342.018 1.627-.644 3.36-2.486 3.36zm7.941-3.611v-.071c.805-.125 1.77-.608 1.77-1.663 0-1.162-.983-1.626-2.646-1.626-.68 0-1.968.09-2.468.143l-.09.25.912.215v3.467c0 1.466-.035 2.36-.071 2.52l-.787.304-.072.269c.698.017 1.36.035 2.075.035 1.466 0 3.595-.25 3.595-2.091.017-.965-.644-1.59-2.218-1.752zm-1.556-2.95h.322c.662 0 1.091.072 1.413.251.375.197.572.536.572 1.037 0 1.198-1.09 1.484-2.307 1.501v-2.788zm2.665 4.684c0 .375-.072.769-.358 1.09-.34.376-.876.608-2.271.608-.072-.804-.036-2.02-.036-2.896v-.285c2.29-.072 2.665.679 2.665 1.483zm3.863 1.502c-.017-.197-.053-1.341-.053-3.128v-2.825l.787-.303.071-.25c-.447 0-.894.017-1.341.017-.43 0-.84-.018-1.252-.018l-.072.25.841.304v2.842c0 1.788-.018 2.95-.072 3.129l-.84.321-.072.268c.43 0 .93-.017 1.467-.017.554 0 1.037.017 1.43.017l.072-.268-.966-.34zm10.872-.036c-.053-.125-.07-1.859-.07-3.075v-2.824l.858-.321.089-.269c-.43 0-.93.018-1.43.018-.305 0-.627-.018-.93-.018l-.09.215.536.375v2.431h-3.737v-2.43l.465-.34.09-.25c-.305 0-.609.017-1.038.017-.394 0-.84-.018-1.234-.018l-.107.25.858.305v2.788c0 1.305-.054 2.896-.072 3.164l-.804.322-.09.268c.43 0 .948-.018 1.413-.018.376 0 .662.018.93.018l.09-.25-.483-.394c-.036-1.108-.018-2.002-.018-2.895h2.343c.572 0 1.144-.018 1.394-.072 0 1.001.018 1.948 0 3.003l-.429.34-.071.268c.304 0 .626-.018 1.001-.018.501 0 1.002.018 1.449.018l.09-.268-1.002-.34zm5.546-6.685c-1.663 0-3.738 1.269-3.738 3.807 0 2.502 1.985 3.664 3.773 3.664 1.771 0 3.792-1.162 3.738-3.86-.018-2.467-2.056-3.611-3.773-3.611zm.16 7.096c-1.716 0-2.771-1.698-2.771-3.45 0-1.841.93-3.253 2.54-3.253h.017c1.592 0 2.7 1.555 2.7 3.342 0 1.627-.661 3.36-2.485 3.36zm7.94-3.486c-.608-.321-1.18-.59-1.61-.858-.41-.25-.626-.554-.626-1.054 0-.644.501-1.233 1.342-1.233.447 0 .805.16.948.268.071.196.25.786.375 1.054l.161-.09c.161-.392.358-1.34.376-1.626l-.09-.053c-.25.089-.572.214-.715.34-.215-.162-.626-.34-1.145-.34-1.377 0-2.146.983-2.146 1.948 0 .643.286 1.233 1.02 1.68.518.322 1.055.572 1.61.876.536.304.786.661.786 1.144 0 .876-.644 1.394-1.61 1.412-.572.018-.912-.125-1.055-.197-.214-1.054-.286-1.358-.34-1.501l-.178.072c-.09.16-.43 1.054-.483 1.34.304.286 1.252.715 2.11.715.912 0 2.522-.429 2.522-2.127.018-.608-.179-1.215-1.252-1.77zm4.524.519l.108.268c.108.036.233.053.43.053.84 0 2.342-.5 2.342-2.216 0-.572-.232-1.251-.876-1.644-.519-.34-1.163-.447-2.039-.447-.59 0-1.466.071-2.253.16l-.09.25.877.215v2.735c0 2.467 0 3.003-.036 3.218l-.751.34-.072.25c.43 0 .876-.018 1.306-.018.554 0 1.109.017 1.663.017l.107-.268-1.18-.34c0-.178-.072-.678-.072-3.235V67.71c1.342-.036 2.361.375 2.361 1.752 0 1-.572 1.733-1.824 1.823zm5.545 2.592c-.018-.197-.053-1.341-.053-3.128v-2.825l.786-.303.072-.25c-.447 0-.894.017-1.323.017-.43 0-.841-.018-1.27-.018l-.072.25.841.304v2.842c0 1.788-.018 2.95-.072 3.129l-.84.321-.072.268c.412 0 .93-.017 1.467-.017.554 0 1.037.017 1.448.017l.072-.268-.984-.34zm8.174-6.668a7.7 7.7 0 00-.894.143h-4.596c-.197-.035-.662-.125-.823-.143l-.036.036a29.56 29.56 0 000 1.787l.179-.053c.125-.215.519-.965.662-1.251l1.77.089v3.02c0 2.414-.018 2.646-.036 3.022l-1.144.34-.072.267c.59 0 1.163-.018 1.735-.018.554 0 1.127.018 1.681.018l.107-.268-1.269-.34c0-.321-.072-.607-.072-3.378v-2.663l1.878-.09c.054.18.34 1.02.429 1.288l.179-.09c.107-.429.286-1.412.304-1.716h.018zm6.205 6.382c-1.037-2.574-2.092-5.256-2.253-5.702-.125-.376-.161-.572-.161-.733l-.072-.054-.804.518.107.286c.036.108.018.215-.036.34-.876 2.234-2.039 4.951-2.361 5.577l-.751.357-.071.269c.375 0 .733-.018 1.109-.018.411 0 .894.017 1.269.017l.072-.25-.948-.357c.179-.519.34-.93.733-1.949 1.467.018 1.967-.017 2.397-.053.429 1.037.715 1.787.804 2.073l-.393.304-.072.233c.412 0 .769-.018 1.145-.018.411 0 .876.017 1.27.017l.071-.25c-.697-.232-.858-.322-1.055-.608zm-3.952-2.253c.232-.697.518-1.376 1.001-2.699h.018c.286.805.608 1.645 1.02 2.753-.43 0-1.735-.054-2.039-.054zm10.802 1.323c-.251.268-.734 1.001-1.002 1.412l-2.307-.143c-.018-.178-.036-1.465-.036-3.181v-2.825l.752-.321.089-.25c-.411 0-.858.017-1.323.017-.483 0-.913-.018-1.288-.018l-.09.25.895.322v2.825c0 1.68-.018 2.985-.036 3.128l-.894.321-.072.25c.465 0 .984-.017 1.502-.017 2.397 0 3.273.035 3.649.035.107-.285.322-1.358.357-1.84l-.196.035z" fill="#fff"/></svg>